<svg width="32" height="28" viewBox="0 0 32 28" fill="none" xmlns="http://www.w3.org/2000/svg">
<path d="M24.4456 15.5366L26.1712 8.06989C26.2956 7.53094 25.8792 7.01748 25.3171 7.01748H10.9786L10.6439 5.40912C10.5788 5.19319 10.4601 5.00948 10.3054 4.88532C10.1507 4.76116 9.96826 4.70318 9.78529 4.72003H6.0427C5.83632 4.69217 5.62944 4.76657 5.46591 4.92747C5.30237 5.08837 5.19505 5.32311 5.16669 5.58193V6.15629C5.19518 6.41498 5.30256 6.64954 5.46608 6.81029C5.6296 6.97104 5.83641 7.04535 6.0427 7.01748H8.59364L11.1581 19.3461C10.8711 19.4801 10.6212 19.7163 10.4389 20.0259C10.2566 20.3355 10.1497 20.7051 10.1313 21.0897C10.1313 22.2002 11.0467 23.1003 12.1753 23.1003C13.3039 23.1003 14.2193 22.2002 14.2193 21.0897C14.2128 20.8068 14.154 20.5297 14.0475 20.2804C13.9411 20.0311 13.7899 19.8164 13.6061 19.6535H21.2578C21.0737 19.8163 20.9224 20.0309 20.8157 20.2802C20.7091 20.5295 20.6501 20.8067 20.6434 21.0897C20.6434 22.2002 21.5588 23.1003 22.6874 23.1003C23.8161 23.1003 24.7314 22.2002 24.7314 21.0897C24.7084 20.6763 24.5857 20.2815 24.3797 19.9581C24.1737 19.6348 23.8943 19.3983 23.5786 19.2802L23.78 18.4084C23.9044 17.8695 23.488 17.356 22.926 17.356H13.129L12.8899 16.2073H23.591C23.7714 16.2231 23.9512 16.1668 24.1047 16.0464C24.2582 15.9259 24.3775 15.7475 24.4456 15.5366V15.5366Z" fill="#FF8000" stroke="#FF8000" stroke-width="0.068"/>
<path d="M23.1739 1.39394H8.82608C4.68395 1.39394 1.32608 5.45051 1.32608 10.4545V17.5455C1.32608 22.5495 4.68395 26.6061 8.82608 26.6061H23.1739C27.3161 26.6061 30.6739 22.5495 30.6739 17.5455V10.4545C30.6739 5.45051 27.3161 1.39394 23.1739 1.39394Z" stroke="#FF8000"/>
</svg>
