<svg width="270" height="58" viewBox="0 0 270 58" fill="none" xmlns="http://www.w3.org/2000/svg">
<g filter="url(#filter0_d)">
<path d="M0 0H217.895C225.961 0 233.698 2.73928 239.402 7.61522C245.106 12.4912 248.31 19.1044 248.31 26C248.31 32.8956 245.106 39.5088 239.402 44.3848C233.698 49.2607 225.961 52 217.895 52H0V0Z" fill="white"/>
</g>
<path d="M98.5352 45.7656C97.5859 46.9023 96.2441 47.7871 94.5098 48.4199C92.7754 49.041 90.8535 49.3516 88.7441 49.3516C86.5293 49.3516 84.584 48.8711 82.9082 47.9102C81.2441 46.9375 79.9551 45.5312 79.041 43.6914C78.1387 41.8516 77.6758 39.6895 77.6523 37.2051V35.4648C77.6523 32.9102 78.0801 30.7012 78.9355 28.8379C79.8027 26.9629 81.0449 25.5332 82.6621 24.5488C84.291 23.5527 86.1953 23.0547 88.375 23.0547C91.4102 23.0547 93.7832 23.7812 95.4941 25.2344C97.2051 26.6758 98.2188 28.7793 98.5352 31.5449H93.4023C93.168 30.0801 92.6465 29.0078 91.8379 28.3281C91.041 27.6484 89.9395 27.3086 88.5332 27.3086C86.7402 27.3086 85.375 27.9824 84.4375 29.3301C83.5 30.6777 83.0254 32.6816 83.0137 35.3418V36.9766C83.0137 39.6602 83.5234 41.6875 84.543 43.0586C85.5625 44.4297 87.0566 45.1152 89.0254 45.1152C91.0059 45.1152 92.418 44.6934 93.2617 43.8496V39.4375H88.4629V35.5527H98.5352V45.7656ZM122.195 23.4062V40.2637C122.195 43.0645 121.316 45.2793 119.559 46.9082C117.812 48.5371 115.422 49.3516 112.387 49.3516C109.398 49.3516 107.025 48.5605 105.268 46.9785C103.51 45.3965 102.613 43.2227 102.578 40.457V23.4062H107.852V40.2988C107.852 41.9746 108.25 43.1992 109.047 43.9727C109.855 44.7344 110.969 45.1152 112.387 45.1152C115.352 45.1152 116.857 43.5566 116.904 40.4395V23.4062H122.195ZM145.785 27.6777H137.945V49H132.672V27.6777H124.938V23.4062H145.785V27.6777ZM158.547 42.6543L164.348 23.4062H170.219L161.307 49H155.805L146.928 23.4062H152.781L158.547 42.6543ZM178.252 49H172.979V23.4062H178.252V49ZM198.555 37.9082H188.43V44.7637H200.312V49H183.156V23.4062H200.277V27.6777H188.43V33.7773H198.555V37.9082ZM208.68 44.7637H219.877V49H203.406V23.4062H208.68V44.7637Z" fill="#FF8000"/>
<path d="M20.5288 17.0286H18.895V20.6721H16.8442V10.719H20.5425C21.7183 10.719 22.6252 10.9811 23.2632 11.5051C23.9012 12.0292 24.2202 12.7698 24.2202 13.7268C24.2202 14.4059 24.0721 14.9732 23.7759 15.429C23.4842 15.8801 23.0399 16.2402 22.4429 16.509L24.5962 20.5764V20.6721H22.395L20.5288 17.0286ZM18.895 15.3674H20.5493C21.0643 15.3674 21.4631 15.2376 21.7456 14.9778C22.0282 14.7135 22.1694 14.3512 22.1694 13.8909C22.1694 13.4215 22.035 13.0523 21.7661 12.7835C21.5018 12.5146 21.0939 12.3801 20.5425 12.3801H18.895V15.3674ZM31.7739 16.3587H27.8364V19.0247H32.4575V20.6721H25.7856V10.719H32.4438V12.3801H27.8364V14.7522H31.7739V16.3587ZM35.7114 17.1653V20.6721H33.6606V10.719H37.5435C38.2909 10.719 38.9471 10.8557 39.5122 11.1292C40.0819 11.4026 40.5194 11.7923 40.8247 12.2981C41.13 12.7994 41.2827 13.3714 41.2827 14.0139C41.2827 14.9892 40.9478 15.7594 40.2778 16.3245C39.6125 16.885 38.6896 17.1653 37.5093 17.1653H35.7114ZM35.7114 15.5042H37.5435C38.0858 15.5042 38.4982 15.3766 38.7808 15.1214C39.0679 14.8661 39.2114 14.5016 39.2114 14.0276C39.2114 13.54 39.0679 13.1458 38.7808 12.845C38.4937 12.5442 38.0972 12.3893 37.5913 12.3801H35.7114V15.5042ZM46.3823 17.0286H44.7485V20.6721H42.6978V10.719H46.396C47.5718 10.719 48.4787 10.9811 49.1167 11.5051C49.7547 12.0292 50.0737 12.7698 50.0737 13.7268C50.0737 14.4059 49.9256 14.9732 49.6294 15.429C49.3377 15.8801 48.8934 16.2402 48.2964 16.509L50.4497 20.5764V20.6721H48.2485L46.3823 17.0286ZM44.7485 15.3674H46.4028C46.9178 15.3674 47.3166 15.2376 47.5991 14.9778C47.8817 14.7135 48.0229 14.3512 48.0229 13.8909C48.0229 13.4215 47.8885 13.0523 47.6196 12.7835C47.3553 12.5146 46.9474 12.3801 46.396 12.3801H44.7485V15.3674ZM57.6274 16.3587H53.6899V19.0247H58.311V20.6721H51.6392V10.719H58.2974V12.3801H53.6899V14.7522H57.6274V16.3587ZM64.6753 18.0608C64.6753 17.6734 64.5386 17.3772 64.2651 17.1721C63.9917 16.9625 63.4995 16.7437 62.7886 16.5159C62.0776 16.2835 61.5148 16.0556 61.1001 15.8323C59.9699 15.2216 59.4048 14.399 59.4048 13.3645C59.4048 12.8268 59.5552 12.3482 59.856 11.929C60.1613 11.5051 60.5965 11.1747 61.1616 10.9378C61.7313 10.7008 62.3693 10.5823 63.0757 10.5823C63.7866 10.5823 64.4201 10.7122 64.9761 10.9719C65.5321 11.2271 65.9627 11.5895 66.2681 12.0589C66.578 12.5283 66.7329 13.0615 66.7329 13.6585H64.6821C64.6821 13.2027 64.5386 12.8495 64.2515 12.5989C63.9644 12.3437 63.561 12.2161 63.0415 12.2161C62.5402 12.2161 62.1506 12.3232 61.8726 12.5374C61.5946 12.747 61.4556 13.025 61.4556 13.3714C61.4556 13.6949 61.6174 13.9661 61.9409 14.1848C62.269 14.4036 62.7498 14.6087 63.3833 14.8001C64.55 15.151 65.3999 15.5862 65.9331 16.1057C66.4663 16.6253 66.7329 17.2724 66.7329 18.0471C66.7329 18.9085 66.4071 19.5852 65.7554 20.0774C65.1037 20.565 64.2264 20.8089 63.1235 20.8089C62.3579 20.8089 61.6606 20.6699 61.0317 20.3919C60.4028 20.1093 59.922 19.7242 59.5894 19.2366C59.2612 18.749 59.0972 18.1839 59.0972 17.5413H61.1548C61.1548 18.6396 61.811 19.1887 63.1235 19.1887C63.6112 19.1887 63.9917 19.0908 64.2651 18.8948C64.5386 18.6943 64.6753 18.4163 64.6753 18.0608ZM74.1157 16.3587H70.1782V19.0247H74.7993V20.6721H68.1274V10.719H74.7856V12.3801H70.1782V14.7522H74.1157V16.3587ZM84.0962 20.6721H82.0454L78.0532 14.1233V20.6721H76.0024V10.719H78.0532L82.0522 17.2815V10.719H84.0962V20.6721ZM93.1743 12.3801H90.1255V20.6721H88.0747V12.3801H85.0669V10.719H93.1743V12.3801ZM99.1489 18.6214H95.5532L94.8696 20.6721H92.689L96.394 10.719H98.2944L102.02 20.6721H99.8394L99.1489 18.6214ZM96.1069 16.9602H98.5952L97.3442 13.2346L96.1069 16.9602ZM110.613 17.3567C110.535 18.4277 110.139 19.2708 109.423 19.886C108.712 20.5012 107.774 20.8089 106.607 20.8089C105.331 20.8089 104.326 20.3805 103.592 19.5237C102.863 18.6624 102.499 17.482 102.499 15.9827V15.3743C102.499 14.4173 102.667 13.5742 103.004 12.845C103.342 12.1158 103.822 11.5576 104.447 11.1702C105.076 10.7783 105.805 10.5823 106.634 10.5823C107.783 10.5823 108.708 10.8899 109.41 11.5051C110.111 12.1204 110.517 12.984 110.626 14.096H108.576C108.526 13.4534 108.346 12.9885 108.036 12.7014C107.73 12.4098 107.263 12.2639 106.634 12.2639C105.951 12.2639 105.438 12.51 105.096 13.0022C104.759 13.4898 104.586 14.2486 104.577 15.2786V16.0305C104.577 17.1061 104.738 17.8922 105.062 18.3889C105.39 18.8857 105.905 19.134 106.607 19.134C107.24 19.134 107.712 18.9905 108.022 18.7034C108.336 18.4117 108.516 17.9628 108.562 17.3567H110.613ZM114.14 20.6721H112.089V10.719H114.14V20.6721ZM124.223 15.9212C124.223 16.901 124.05 17.76 123.704 18.4983C123.357 19.2366 122.861 19.8062 122.213 20.2073C121.571 20.6083 120.833 20.8089 119.999 20.8089C119.174 20.8089 118.438 20.6106 117.791 20.2141C117.143 19.8176 116.642 19.2525 116.287 18.5188C115.931 17.7805 115.751 16.9329 115.747 15.9758V15.4837C115.747 14.5038 115.922 13.6425 116.273 12.8997C116.628 12.1523 117.127 11.5803 117.77 11.1839C118.417 10.7828 119.155 10.5823 119.985 10.5823C120.814 10.5823 121.55 10.7828 122.193 11.1839C122.84 11.5803 123.339 12.1523 123.69 12.8997C124.045 13.6425 124.223 14.5016 124.223 15.4768V15.9212ZM122.145 15.47C122.145 14.4264 121.958 13.6334 121.584 13.0911C121.211 12.5488 120.678 12.2776 119.985 12.2776C119.297 12.2776 118.766 12.5465 118.392 13.0842C118.018 13.6174 117.829 14.4013 117.825 15.4358V15.9212C117.825 16.9374 118.012 17.7258 118.385 18.2864C118.759 18.8469 119.297 19.1272 119.999 19.1272C120.687 19.1272 121.215 18.8583 121.584 18.3206C121.954 17.7783 122.14 16.9898 122.145 15.9553V15.47ZM133.807 20.6721H131.756L127.764 14.1233V20.6721H125.713V10.719H127.764L131.763 17.2815V10.719H133.807V20.6721ZM141.586 16.3587H137.649V19.0247H142.27V20.6721H135.598V10.719H142.256V12.3801H137.649V14.7522H141.586V16.3587ZM148.634 18.0608C148.634 17.6734 148.498 17.3772 148.224 17.1721C147.951 16.9625 147.458 16.7437 146.748 16.5159C146.037 16.2835 145.474 16.0556 145.059 15.8323C143.929 15.2216 143.364 14.399 143.364 13.3645C143.364 12.8268 143.514 12.3482 143.815 11.929C144.12 11.5051 144.556 11.1747 145.121 10.9378C145.69 10.7008 146.328 10.5823 147.035 10.5823C147.746 10.5823 148.379 10.7122 148.935 10.9719C149.491 11.2271 149.922 11.5895 150.227 12.0589C150.537 12.5283 150.692 13.0615 150.692 13.6585H148.641C148.641 13.2027 148.498 12.8495 148.21 12.5989C147.923 12.3437 147.52 12.2161 147 12.2161C146.499 12.2161 146.11 12.3232 145.832 12.5374C145.554 12.747 145.415 13.025 145.415 13.3714C145.415 13.6949 145.576 13.9661 145.9 14.1848C146.228 14.4036 146.709 14.6087 147.342 14.8001C148.509 15.151 149.359 15.5862 149.892 16.1057C150.425 16.6253 150.692 17.2724 150.692 18.0471C150.692 18.9085 150.366 19.5852 149.714 20.0774C149.063 20.565 148.185 20.8089 147.083 20.8089C146.317 20.8089 145.62 20.6699 144.991 20.3919C144.362 20.1093 143.881 19.7242 143.548 19.2366C143.22 18.749 143.056 18.1839 143.056 17.5413H145.114C145.114 18.6396 145.77 19.1887 147.083 19.1887C147.57 19.1887 147.951 19.0908 148.224 18.8948C148.498 18.6943 148.634 18.4163 148.634 18.0608Z" fill="#74A0E1"/>
<defs>
<filter id="filter0_d" x="0" y="-6" width="269.31" height="64" filterUnits="userSpaceOnUse" color-interpolation-filters="sRGB">
<feFlood flood-opacity="0" result="BackgroundImageFix"/>
<feColorMatrix in="SourceAlpha" type="matrix" values="0 0 0 0 0 0 0 0 0 0 0 0 0 0 0 0 0 0 127 0"/>
<feOffset dx="15"/>
<feGaussianBlur stdDeviation="3"/>
<feColorMatrix type="matrix" values="0 0 0 0 0 0 0 0 0 0 0 0 0 0 0 0 0 0 0.161 0"/>
<feBlend mode="normal" in2="BackgroundImageFix" result="effect1_dropShadow"/>
<feBlend mode="normal" in="SourceGraphic" in2="effect1_dropShadow" result="shape"/>
</filter>
</defs>
</svg>
